<?xml version="1.0" encoding="UTF-8"?>
<svg width="638px" height="150px" viewBox="0 0 638 150" version="1.1" xmlns="http://www.w3.org/2000/svg" xmlns:xlink="http://www.w3.org/1999/xlink">
    <!-- Generator: Sketch 52 (66869) - http://www.bohemiancoding.com/sketch -->
    <title>BOOXSTORE@2x</title>
    <desc>Created with Sketch.</desc>
    <defs>
        <polygon id="path-1" points="0.804474262 0.390875862 46.6514599 0.390875862 46.6514599 49.051669 0.804474262 49.051669"></polygon>
    </defs>
    <g id="Page-1" stroke="none" stroke-width="1" fill="none" fill-rule="evenodd">
        <g id="Desktop-HD" transform="translate(-117.000000, -170.000000)">
            <g id="BOOXSTORE" transform="translate(117.000000, 170.000000)">
                <polygon id="Fill-1" fill="#73A7F2" points="124.42879 13 124.42879 123.621335 13 123.621335 13 150 151 150 151 13"></polygon>
                <polygon id="Fill-2" fill="#39B588" points="0 0 0 137 26.5712095 137 26.5712095 26.3761637 138 26.3761637 138 0"></polygon>
                <g id="Group-26" transform="translate(43.000000, 43.000000)">
                    <path d="M41.6133738,20.8684345 C41.6133738,9.49553793 32.4017789,0.2774 21.0400574,0.2774 C9.68085063,0.2774 0.471770464,9.49553793 0.471770464,20.8684345 C0.471770464,32.2438483 9.68085063,41.4619862 21.0400574,41.4619862 C32.4017789,41.4619862 41.6133738,32.2438483 41.6133738,20.8684345" id="Fill-3" fill="#39B588"></path>
                    <path d="M62.1834211,41.4609793 C62.1834211,30.0880828 52.9743409,20.8699448 41.6126194,20.8699448 C30.2534127,20.8699448 21.0418177,30.0880828 21.0418177,41.4609793 C21.0418177,52.8338759 30.2534127,62.054531 41.6126194,62.054531 C52.9743409,62.054531 62.1834211,52.8338759 62.1834211,41.4609793" id="Fill-5" fill="#73A7F2"></path>
                    <path d="M177.648991,57.8920207 C183.274527,57.8920207 186.689581,54.9367793 186.689581,50.2295379 C186.689581,45.7035379 183.365058,42.5645379 177.648991,42.5645379 L168.515354,42.5645379 L168.515354,57.8920207 L177.648991,57.8920207 Z M176.449446,30.562331 C181.521733,30.562331 184.843742,27.8839862 184.843742,23.4511241 C184.843742,19.2045379 181.984451,16.4330552 176.263354,16.4330552 L168.515354,16.4330552 L168.515354,30.562331 L176.449446,30.562331 Z M178.752974,4.33771034 C191.668822,4.33771034 199.142712,11.8164345 199.142712,21.8803655 C199.142712,28.6215379 194.897784,34.1619862 189.546358,35.9190207 C195.451033,37.3009862 201.17213,42.7482966 201.17213,51.2439862 C201.17213,61.9548483 193.051944,69.8036069 180.69186,69.8036069 L154.30943,69.8036069 L154.30943,4.33771034 L178.752974,4.33771034 Z" id="Fill-7" fill="#181921"></path>
                    <path d="M242.126886,46.8126345 C242.126886,39.0570138 237.145131,35.4548414 231.796219,35.4548414 C226.53784,35.4548414 221.463038,39.0570138 221.463038,46.8126345 C221.463038,54.4776345 226.53784,58.2635655 231.796219,58.2635655 C237.145131,58.2635655 242.126886,54.5682552 242.126886,46.8126345 M256.146717,46.8126345 C256.146717,61.032531 245.539426,71.1896 231.796219,71.1896 C218.14103,71.1896 207.443207,61.032531 207.443207,46.8126345 C207.443207,32.5927379 218.14103,22.5288069 231.796219,22.5288069 C245.539426,22.5288069 256.146717,32.5927379 256.146717,46.8126345" id="Fill-9" fill="#181921"></path>
                    <path d="M296.550488,46.8126345 C296.550488,39.0570138 291.571247,35.4548414 286.222336,35.4548414 C280.961441,35.4548414 275.88664,39.0570138 275.88664,46.8126345 C275.88664,54.4776345 280.961441,58.2635655 286.222336,58.2635655 C291.571247,58.2635655 296.550488,54.5682552 296.550488,46.8126345 M310.572834,46.8126345 C310.572834,61.032531 299.963028,71.1896 286.222336,71.1896 C272.567146,71.1896 261.866808,61.032531 261.866808,46.8126345 C261.866808,32.5927379 272.567146,22.5288069 286.222336,22.5288069 C299.963028,22.5288069 310.572834,32.5927379 310.572834,46.8126345" id="Fill-11" fill="#181921"></path>
                    <path d="M328.284596,46.9035069 L312.232832,23.9110241 L328.747313,23.9110241 L336.955516,36.4695414 L344.982655,23.9110241 L360.662233,23.9110241 L344.796562,46.3497138 C349.961895,53.7378172 355.959617,62.4172655 361.217997,69.805369 L344.796562,69.805369 L336.30922,56.8768172 C333.8196,60.5721276 330.40706,66.0194379 327.91744,69.805369 L312.511971,69.805369 L328.284596,46.9035069 Z" id="Fill-13" fill="#181921"></path>
                    <path d="M401.158798,24.0985586 C400.696081,21.0501793 398.206461,15.8797655 390.272368,15.8797655 C384.83041,15.8797655 381.324824,19.2956621 381.324824,22.8953172 C381.324824,26.0368345 383.261195,28.3451448 387.782748,29.1758345 L396.546714,30.839731 C408.99733,33.1480414 415.457769,41.1805586 415.457769,50.5044207 C415.457769,60.7571448 406.874866,71.1885931 391.285819,71.1885931 C373.207153,71.1885931 365.459153,59.4632828 364.536233,50.2300414 L377.912284,46.9979034 C378.465532,52.9990069 382.524368,58.2625586 391.471912,58.2625586 C397.190495,58.2625586 400.696081,55.4935931 400.696081,51.4282483 C400.696081,48.1054897 398.020368,45.7040414 393.684908,44.8733517 L384.739878,43.2119724 C373.667355,41.0874207 366.935322,33.6993172 366.935322,24.0054207 C366.935322,11.6331793 377.819237,2.95373103 390.3629,2.95373103 C406.691288,2.95373103 412.872587,12.7382483 414.258224,20.4032483 L401.158798,24.0985586 Z" id="Fill-15" fill="#181921"></path>
                    <path d="M442.480711,23.9117793 L451.43077,23.9117793 L451.43077,36.1934 L442.480711,36.1934 L442.480711,53.3685379 C442.480711,57.154469 444.512643,58.1689172 447.555512,58.1689172 C449.031681,58.1689172 450.414803,57.8920207 451.244677,57.7082621 L451.244677,69.3429517 C450.693943,69.6198483 448.385386,70.6368138 443.959394,70.6368138 C434.456086,70.6368138 428.644457,65.0032276 428.644457,55.8606069 L428.644457,36.1934 L420.526786,36.1934 L420.526786,23.9117793 L422.835343,23.9117793 C427.631006,23.9117793 429.937048,20.6821586 429.937048,16.4330552 L429.937048,10.5250897 L442.480711,10.5250897 L442.480711,23.9117793 Z" id="Fill-17" fill="#181921"></path>
                    <path d="M492.201193,46.8126345 C492.201193,39.0570138 487.221953,35.4548414 481.873041,35.4548414 C476.612147,35.4548414 471.537345,39.0570138 471.537345,46.8126345 C471.537345,54.4776345 476.612147,58.2635655 481.873041,58.2635655 C487.221953,58.2635655 492.201193,54.5682552 492.201193,46.8126345 M506.223539,46.8126345 C506.223539,61.032531 495.613733,71.1896 481.873041,71.1896 C468.217851,71.1896 457.517514,61.032531 457.517514,46.8126345 C457.517514,32.5927379 468.217851,22.5288069 481.873041,22.5288069 C495.613733,22.5288069 506.223539,32.5927379 506.223539,46.8126345" id="Fill-19" fill="#181921"></path>
                    <path d="M544.412302,37.7639069 C542.845602,37.3963897 541.369433,37.3007345 539.986311,37.3007345 C534.35826,37.3007345 529.283458,40.6260103 529.283458,49.768631 L529.283458,69.8058724 L515.261112,69.8058724 L515.261112,23.9115276 L528.823256,23.9115276 L528.823256,30.0989069 C531.222344,24.9284931 537.033973,23.4508724 540.723138,23.4508724 C542.108775,23.4508724 543.491897,23.6371483 544.412302,23.9115276 L544.412302,37.7639069 Z" id="Fill-21" fill="#181921"></path>
                    <g id="Group-25" transform="translate(548.219409, 22.137931)">
                        <mask id="mask-2" fill="white">
                            <use xlink:href="#path-1"></use>
                        </mask>
                        <g id="Clip-24"></g>
                        <path d="M33.0940945,19.2273931 C32.9080017,15.7158414 30.5114278,11.4717724 23.867411,11.4717724 C17.9627359,11.4717724 15.0129131,15.8114966 14.7337738,19.2273931 L33.0940945,19.2273931 Z M45.8238498,34.4642552 C43.610854,42.4036345 36.3205418,49.051669 24.6972844,49.051669 C12.0605755,49.051669 0.804474262,40.0021862 0.804474262,24.5815655 C0.804474262,9.80787586 11.7814363,0.390875862 23.6838329,0.390875862 C37.8872422,0.390875862 46.6537232,9.16094483 46.6537232,23.9346345 C46.6537232,25.8754276 46.4676304,27.9974621 46.374584,28.2768759 L14.4596641,28.2768759 C14.7337738,33.4447724 19.4389046,37.1400828 24.8808624,37.1400828 C29.9556641,37.1400828 32.8149553,34.7386345 34.1050312,31.1364621 L45.8238498,34.4642552 Z" id="Fill-23" fill="#181921" mask="url(#mask-2)"></path>
                    </g>
                </g>
            </g>
        </g>
    </g>
</svg>