<?xml version="1.0" encoding="UTF-8"?>
<svg width="77px" height="77px" viewBox="0 0 77 77" version="1.1" xmlns="http://www.w3.org/2000/svg" xmlns:xlink="http://www.w3.org/1999/xlink">
    <!-- Generator: Sketch 52 (66869) - http://www.bohemiancoding.com/sketch -->
    <title>Categorie</title>
    <desc>Created with Sketch.</desc>
    <g id="Page-1" stroke="none" stroke-width="1" fill="none" fill-rule="evenodd">
        <g id="Desktop-HD" transform="translate(-135.000000, -1312.000000)" fill="#2D2D41">
            <g id="Categorie" transform="translate(135.000000, 1312.000000)">
                <path d="M0,77 L33,77 L33,44 L0,44 L0,77 Z M6.10344374,70.8965563 L26.8965563,70.8965563 L26.8965563,50.1034437 L6.10344374,50.1034437 L6.10344374,70.8965563 Z" id="Fill-1"></path>
                <path d="M40,77 L73,77 L73,44 L40,44 L40,77 Z M46.1037115,70.8965563 L66.8977362,70.8965563 L66.8977362,50.1034437 L46.1037115,50.1034437 L46.1037115,70.8965563 Z" id="Fill-2"></path>
                <path d="M55.5,0 L34,21.5 L55.5,43 L77,21.5 L55.5,0 Z M42.7219209,21.5 L55.5,8.72132217 L68.2780791,21.5 L55.5,34.2786778 L42.7219209,21.5 Z" id="Fill-3"></path>
                <path d="M0,37 L33,37 L33,4 L0,4 L0,37 Z M6.10344374,30.8962885 L26.8965563,30.8962885 L26.8965563,10.1022638 L6.10344374,10.1022638 L6.10344374,30.8962885 Z" id="Fill-4"></path>
            </g>
        </g>
    </g>
</svg>