<?xml version="1.0" encoding="UTF-8"?>
<svg width="83px" height="83px" viewBox="0 0 83 83" version="1.1" xmlns="http://www.w3.org/2000/svg" xmlns:xlink="http://www.w3.org/1999/xlink">
    <!-- Generator: Sketch 52 (66869) - http://www.bohemiancoding.com/sketch -->
    <title>Crea</title>
    <desc>Created with Sketch.</desc>
    <defs>
        <polygon id="path-1" points="0 0 83 0 83 83 0 83"></polygon>
    </defs>
    <g id="Page-1" stroke="none" stroke-width="1" fill="none" fill-rule="evenodd">
        <g id="Desktop-HD" transform="translate(-117.000000, -671.000000)">
            <g id="Crea" transform="translate(117.000000, 671.000000)">
                <mask id="mask-2" fill="white">
                    <use xlink:href="#path-1"></use>
                </mask>
                <g id="Clip-2"></g>
                <path d="M75.1640368,20.0994521 L71.3067526,23.958287 L59.0424357,11.6961851 L62.9014296,7.83735014 C64.2350651,6.50718906 66.4047874,6.50718906 67.7384229,7.83735014 L75.1640368,15.2626581 C76.4976722,16.5962386 76.4976722,18.7658715 75.1640368,20.0994521 Z M62.7578074,32.5068801 L50.4934904,20.2447781 L54.2088621,16.5312693 L66.4714692,28.7933712 L62.7578074,32.5068801 Z M23.0821523,72.1809006 L10.8178354,59.9187987 L45.6599168,25.0798624 L57.9225239,37.3419643 L23.0821523,72.1809006 Z M6.83915623,76.1611255 L6.83915623,65.6087422 L17.3919743,76.1611255 L6.83915623,76.1611255 Z M79.9993202,10.4275738 L72.5737063,3.00055617 C68.5745097,-1.00018539 62.0670526,-1.00018539 58.0661462,3.00055617 L1.00193639,60.0658345 C0.360765491,60.7069789 0,61.5789354 0,62.4833766 L0,79.5805628 C0,81.4698018 1.531971,83 3.41957811,83 L20.5174687,83 C21.4219471,83 22.2939395,82.6392494 22.9351104,81.9981049 L79.9993202,24.9345363 C84.0002266,20.9337948 84.0002266,14.4283154 79.9993202,10.4275738 Z" id="Fill-1" fill="#2D2D41" mask="url(#mask-2)"></path>
            </g>
        </g>
    </g>
</svg>