<?xml version="1.0" encoding="UTF-8"?>
<svg width="94px" height="76px" viewBox="0 0 94 76" version="1.1" xmlns="http://www.w3.org/2000/svg" xmlns:xlink="http://www.w3.org/1999/xlink">
    <!-- Generator: Sketch 52 (66869) - http://www.bohemiancoding.com/sketch -->
    <title>Gioca</title>
    <desc>Created with Sketch.</desc>
    <g id="Page-1" stroke="none" stroke-width="1" fill="none" fill-rule="evenodd">
        <g id="Desktop-HD" transform="translate(-114.000000, -995.000000)">
            <g id="Gioca" transform="translate(115.000000, 996.000000)">
                <path d="M85.424798,65.8978969 C84.263429,67.66499 82.4219473,68.7460071 79.8073963,69.2364023 C68.9597161,71.102529 61.6973359,56.8619779 59.0816082,50.6753622 C58.3073623,48.9082691 56.6600304,47.8260588 54.8197254,47.8260588 L37.1932745,47.8260588 C35.3529695,47.8260588 33.7068143,48.9082691 32.9313917,50.6753622 C30.3168407,56.8619779 23.0532839,71.2003694 12.2056036,69.2364023 C9.59105262,68.7460071 7.74957093,67.66499 6.58820198,65.8978969 C3.29589159,60.986786 4.74907363,50.871043 6.7823518,40.7564932 C10.0758388,24.551975 15.5955772,17.2843422 24.6029525,17.0874682 L25.2807119,17.0874682 C27.9917495,17.0874682 30.9946001,17.3821826 34.1904239,18.0694518 C41.8422804,19.6408641 49.9777464,19.6408641 57.6296029,18.0694518 C61.1160631,17.3821826 64.4095501,17.0874682 67.2170743,17.0874682 C76.3209361,17.2843422 81.8406745,24.6498154 85.037675,40.7564932 C87.2639263,50.871043 88.718285,60.986786 85.424798,65.8978969 M89.7831674,39.7733165 C87.4592528,28.1851948 82.5184339,12.6679457 67.506534,12.2753909 C64.3118869,12.1775505 60.7277634,12.5701053 56.8541802,13.3552148 C54.0454794,13.9446436 51.2356019,14.239358 48.3315912,14.3371984 L48.3315912,2.3553287 C48.3315912,1.07982395 47.2655322,0 46.0065,0 C44.7486444,0 43.6814087,1.07982395 43.6814087,2.3553287 L43.6814087,14.3371984 C40.777398,14.239358 37.9686972,13.8468032 35.1588197,13.3552148 C31.3817231,12.5701053 27.7022897,12.2753909 24.5064659,12.2753909 C9.49456604,12.5701053 4.55374713,28.0873543 2.22983255,39.7733165 C-0.385895104,52.6393293 -1.25662766,62.4603579 2.71461878,68.4512928 C4.65141038,71.2982098 7.55659777,73.0676893 11.3336944,73.7549584 C21.2129789,75.5220516 30.6074771,67.66499 37.1932745,52.3458081 L54.8197254,52.3458081 C60.7277634,66.2904517 68.9597161,73.9506392 77.8706047,73.9506392 C78.7425139,73.9506392 79.7109097,73.8527988 80.582819,73.7549584 C84.4564022,73.0676893 87.3615896,71.2982098 89.2018946,68.4512928 C93.2696276,62.4603579 92.398895,52.6393293 89.7831674,39.7733165" id="Fill-1" fill="#2D2D41"></path>
                <path d="M85.424798,65.8978969 C84.263429,67.66499 82.4219473,68.7460071 79.8073963,69.2364023 C68.9597161,71.102529 61.6973359,56.8619779 59.0816082,50.6753622 C58.3073623,48.9082691 56.6600304,47.8260588 54.8197254,47.8260588 L37.1932745,47.8260588 C35.3529695,47.8260588 33.7068143,48.9082691 32.9313917,50.6753622 C30.3168407,56.8619779 23.0532839,71.2003694 12.2056036,69.2364023 C9.59105262,68.7460071 7.74957093,67.66499 6.58820198,65.8978969 C3.29589159,60.986786 4.74907363,50.871043 6.7823518,40.7564932 C10.0758388,24.551975 15.5955772,17.2843422 24.6029525,17.0874682 L25.2807119,17.0874682 C27.9917495,17.0874682 30.9946001,17.3821826 34.1904239,18.0694518 C41.8422804,19.6408641 49.9777464,19.6408641 57.6296029,18.0694518 C61.1160631,17.3821826 64.4095501,17.0874682 67.2170743,17.0874682 C76.3209361,17.2843422 81.8406745,24.6498154 85.037675,40.7564932 C87.2639263,50.871043 88.718285,60.986786 85.424798,65.8978969 Z M89.7831674,39.7733165 C87.4592528,28.1851948 82.5184339,12.6679457 67.506534,12.2753909 C64.3118869,12.1775505 60.7277634,12.5701053 56.8541802,13.3552148 C54.0454794,13.9446436 51.2356019,14.239358 48.3315912,14.3371984 L48.3315912,2.3553287 C48.3315912,1.07982395 47.2655322,0 46.0065,0 C44.7486444,0 43.6814087,1.07982395 43.6814087,2.3553287 L43.6814087,14.3371984 C40.777398,14.239358 37.9686972,13.8468032 35.1588197,13.3552148 C31.3817231,12.5701053 27.7022897,12.2753909 24.5064659,12.2753909 C9.49456604,12.5701053 4.55374713,28.0873543 2.22983255,39.7733165 C-0.385895104,52.6393293 -1.25662766,62.4603579 2.71461878,68.4512928 C4.65141038,71.2982098 7.55659777,73.0676893 11.3336944,73.7549584 C21.2129789,75.5220516 30.6074771,67.66499 37.1932745,52.3458081 L54.8197254,52.3458081 C60.7277634,66.2904517 68.9597161,73.9506392 77.8706047,73.9506392 C78.7425139,73.9506392 79.7109097,73.8527988 80.582819,73.7549584 C84.4564022,73.0676893 87.3615896,71.2982098 89.2018946,68.4512928 C93.2696276,62.4603579 92.398895,52.6393293 89.7831674,39.7733165 Z" id="Stroke-3" stroke="#2D2D41" stroke-width="2"></path>
                <path d="M34.80081,31.999595 L30.00162,31.999595 L30.00162,27.19919 C30.00162,26.5989875 29.5010462,26 28.801215,26 L25.201215,26 C24.5997975,26 23.999595,26.4993588 23.999595,27.19919 L23.999595,31.999595 L19.19919,31.999595 C18.6002025,31.999595 18,32.4989538 18,33.198785 L18,36.798785 C18,37.3989875 18.4993588,37.99919 19.19919,37.99919 L23.999595,37.99919 L23.999595,42.80081 C23.999595,43.3997975 24.5001687,44 25.201215,44 L28.801215,44 C29.4014175,44 30.00162,43.5006412 30.00162,42.80081 L30.00162,37.99919 L34.80081,37.99919 C35.3997975,37.99919 36,37.4986163 36,36.798785 L36,33.198785 C36,32.5985825 35.5006412,31.999595 34.80081,31.999595" id="Fill-5" fill="#2D2D41"></path>
                <path d="M34.80081,31.999595 L30.00162,31.999595 L30.00162,27.19919 C30.00162,26.5989875 29.5010462,26 28.801215,26 L25.201215,26 C24.5997975,26 23.999595,26.4993588 23.999595,27.19919 L23.999595,31.999595 L19.19919,31.999595 C18.6002025,31.999595 18,32.4989538 18,33.198785 L18,36.798785 C18,37.3989875 18.4993588,37.99919 19.19919,37.99919 L23.999595,37.99919 L23.999595,42.80081 C23.999595,43.3997975 24.5001687,44 25.201215,44 L28.801215,44 C29.4014175,44 30.00162,43.5006412 30.00162,42.80081 L30.00162,37.99919 L34.80081,37.99919 C35.3997975,37.99919 36,37.4986163 36,36.798785 L36,33.198785 C36,32.5985825 35.5006412,31.999595 34.80081,31.999595 Z" id="Stroke-7" stroke="#2D2D41" stroke-width="2"></path>
                <path d="M66,33 C67.6879271,33 69,31.6879271 69,30 C69,28.4066059 67.6879271,27 66,27 C64.3132118,27 63,28.3132118 63,30 C63,31.6879271 64.3132118,33 66,33" id="Fill-9" fill="#2D2D41"></path>
                <path d="M66,33 C67.6879271,33 69,31.6879271 69,30 C69,28.4066059 67.6879271,27 66,27 C64.3132118,27 63,28.3132118 63,30 C63,31.6879271 64.3132118,33 66,33 Z" id="Stroke-11" stroke="#2D2D41" stroke-width="2"></path>
                <path d="M71.9994306,33 C70.3129626,33 69,34.3120729 69,36 C69,37.6867882 70.3129626,39 71.9994306,39 C73.6870374,39 75,37.6867882 75,36 C75,34.3120729 73.6870374,33 71.9994306,33" id="Fill-13" fill="#2D2D41"></path>
                <path d="M71.9994306,33 C70.3129626,33 69,34.3120729 69,36 C69,37.6867882 70.3129626,39 71.9994306,39 C73.6870374,39 75,37.6867882 75,36 C75,34.3120729 73.6870374,33 71.9994306,33 Z" id="Stroke-15" stroke="#2D2D41" stroke-width="2"></path>
                <path d="M60.0005694,33 C58.3129626,33 57,34.3120729 57,36 C57,37.6867882 58.3129626,39 60.0005694,39 C61.6870374,39 63,37.6867882 63,36 C63,34.405467 61.6870374,33 60.0005694,33" id="Fill-17" fill="#2D2D41"></path>
                <path d="M60.0005694,33 C58.3129626,33 57,34.3120729 57,36 C57,37.6867882 58.3129626,39 60.0005694,39 C61.6870374,39 63,37.6867882 63,36 C63,34.405467 61.6870374,33 60.0005694,33 Z" id="Stroke-19" stroke="#2D2D41" stroke-width="2"></path>
                <path d="M66,39 C64.3132118,39 63,40.3120729 63,42 C63,43.6867882 64.3132118,45 66,45 C67.6867882,45 69,43.6867882 69,42 C69,40.3120729 67.6867882,39 66,39" id="Fill-21" fill="#2D2D41"></path>
                <path d="M66,39 C64.3132118,39 63,40.3120729 63,42 C63,43.6867882 64.3132118,45 66,45 C67.6867882,45 69,43.6867882 69,42 C69,40.3120729 67.6867882,39 66,39 Z" id="Stroke-23" stroke="#2D2D41" stroke-width="2"></path>
            </g>
        </g>
    </g>
</svg>