<?xml version="1.0" encoding="UTF-8"?>
<svg width="84px" height="80px" viewBox="0 0 84 80" version="1.1" xmlns="http://www.w3.org/2000/svg" xmlns:xlink="http://www.w3.org/1999/xlink">
    <!-- Generator: Sketch 52 (66869) - http://www.bohemiancoding.com/sketch -->
    <title>Lavora</title>
    <desc>Created with Sketch.</desc>
    <g id="Page-1" stroke="none" stroke-width="1" fill="none" fill-rule="evenodd">
        <g id="Desktop-HD" transform="translate(-117.000000, -830.000000)">
            <g id="Lavora" transform="translate(118.000000, 831.000000)">
                <path d="M77.0279238,70.3001993 C77.0227754,71.7986712 75.8051767,73.0085295 74.3095638,73.0020872 L7.6917233,73.0020872 C6.20383305,72.9969334 4.99910531,71.789652 4.9926698,70.3001993 L4.9926698,49.2816503 C10.4319641,50.5482005 23.6762467,53.4369142 33.8700968,53.8105659 C35.1983864,57.7596772 39.4728531,59.8804723 43.4178217,58.5507879 C45.6483699,57.7983308 47.3988291,56.044745 48.1517839,53.8105659 C58.2928629,53.4253181 71.5886295,50.5482005 77.0279238,49.2816503 L77.0279238,70.3001993 Z M43.5336609,51.6704439 C43.4062377,53.0709933 42.1693324,54.1030449 40.7702522,53.975488 C39.5475051,53.8646809 38.578317,52.8944751 38.4676262,51.6704439 C38.5500008,51.4745989 38.5500008,51.2529848 38.4676262,51.0571398 C38.5950494,49.6578789 39.8319547,48.6245388 41.2310349,48.7508073 C42.453782,48.8629028 43.4229701,49.8318201 43.5336609,51.0571398 C43.4499992,51.2529848 43.4499992,51.4745989 43.5336609,51.6704439 Z M4.98237298,22.2434445 C4.98752139,20.7501264 6.19997175,19.5415566 7.6917233,19.5415566 L74.3095638,19.5415566 C75.797454,19.5479989 77.0008947,20.7539918 77.0073302,22.2434445 L77.0073302,44.1883919 C72.7830605,45.2281742 58.4910766,48.4274053 48.1002998,48.8538836 C46.7205261,44.9240991 42.4190303,42.8561305 38.4933683,44.2360647 C36.3348977,44.9936756 34.6372098,46.6944348 33.8803937,48.8538836 C23.5102105,48.3449443 9.21693952,45.1547324 4.98237298,44.1883919 L4.98237298,22.2434445 Z M40.1395721,4.98589256 L40.1395721,4.99491174 C40.4343185,4.98589256 40.7277779,4.92275832 41.0006436,4.80808592 C41.2747963,4.91889296 41.5669686,4.97816184 41.861715,4.98589256 C48.0874288,4.72175951 53.7300852,8.62319801 55.6877678,14.5449323 L26.3135193,14.5449323 C28.2699148,8.62319801 33.9138583,4.72175951 40.1395721,4.98589256 Z M74.3095638,14.5539515 L60.9185515,14.5539515 C58.7806746,5.8182338 50.8431148,-0.240076586 41.861715,0.00730656872 C41.5669686,0.0150372923 41.2747963,0.0743061732 41.0006436,0.185113211 C40.7264908,0.0743061732 40.4330314,0.0150372923 40.1395721,0.00730656872 C31.1568852,-0.240076586 23.2193254,5.8182338 21.0814485,14.5539515 L7.6917233,14.5539515 C3.44685994,14.5603937 0.00514840917,18.0044311 0,22.2537522 L0,70.3001993 C0.00514840917,74.5508088 3.44685994,77.9948462 7.6917233,78 L74.3095638,78 C78.5544272,77.9948462 81.9948516,74.5508088 82,70.3001993 L82,22.2434445 C81.9884161,17.9979888 78.5505659,14.5603937 74.3095638,14.5539515 Z" id="Fill-1" fill="#2D2D41"></path>
                <path d="M77.0279238,70.3001993 C77.0227754,71.7986712 75.8051767,73.0085295 74.3095638,73.0020872 L7.6917233,73.0020872 C6.20383305,72.9969334 4.99910531,71.789652 4.9926698,70.3001993 L4.9926698,49.2816503 C10.4319641,50.5482005 23.6762467,53.4369142 33.8700968,53.8105659 C35.1983864,57.7596772 39.4728531,59.8804723 43.4178217,58.5507879 C45.6483699,57.7983308 47.3988291,56.044745 48.1517839,53.8105659 C58.2928629,53.4253181 71.5886295,50.5482005 77.0279238,49.2816503 L77.0279238,70.3001993 Z M43.5336609,51.6704439 C43.4062377,53.0709933 42.1693324,54.1030449 40.7702522,53.975488 C39.5475051,53.8646809 38.578317,52.8944751 38.4676262,51.6704439 C38.5500008,51.4745989 38.5500008,51.2529848 38.4676262,51.0571398 C38.5950494,49.6578789 39.8319547,48.6245388 41.2310349,48.7508073 C42.453782,48.8629028 43.4229701,49.8318201 43.5336609,51.0571398 C43.4499992,51.2529848 43.4499992,51.4745989 43.5336609,51.6704439 Z M4.98237298,22.2434445 C4.98752139,20.7501264 6.19997175,19.5415566 7.6917233,19.5415566 L74.3095638,19.5415566 C75.797454,19.5479989 77.0008947,20.7539918 77.0073302,22.2434445 L77.0073302,44.1883919 C72.7830605,45.2281742 58.4910766,48.4274053 48.1002998,48.8538836 C46.7205261,44.9240991 42.4190303,42.8561305 38.4933683,44.2360647 C36.3348977,44.9936756 34.6372098,46.6944348 33.8803937,48.8538836 C23.5102105,48.3449443 9.21693952,45.1547324 4.98237298,44.1883919 L4.98237298,22.2434445 Z M40.1395721,4.98589256 L40.1395721,4.99491174 C40.4343185,4.98589256 40.7277779,4.92275832 41.0006436,4.80808592 C41.2747963,4.91889296 41.5669686,4.97816184 41.861715,4.98589256 C48.0874288,4.72175951 53.7300852,8.62319801 55.6877678,14.5449323 L26.3135193,14.5449323 C28.2699148,8.62319801 33.9138583,4.72175951 40.1395721,4.98589256 Z M74.3095638,14.5539515 L60.9185515,14.5539515 C58.7806746,5.8182338 50.8431148,-0.240076586 41.861715,0.00730656872 C41.5669686,0.0150372923 41.2747963,0.0743061732 41.0006436,0.185113211 C40.7264908,0.0743061732 40.4330314,0.0150372923 40.1395721,0.00730656872 C31.1568852,-0.240076586 23.2193254,5.8182338 21.0814485,14.5539515 L7.6917233,14.5539515 C3.44685994,14.5603937 0.00514840917,18.0044311 0,22.2537522 L0,70.3001993 C0.00514840917,74.5508088 3.44685994,77.9948462 7.6917233,78 L74.3095638,78 C78.5544272,77.9948462 81.9948516,74.5508088 82,70.3001993 L82,22.2434445 C81.9884161,17.9979888 78.5505659,14.5603937 74.3095638,14.5539515 Z" id="Stroke-3" stroke="#2D2D41" stroke-width="2"></path>
            </g>
        </g>
    </g>
</svg>