<?xml version="1.0" encoding="UTF-8"?>
<svg width="90px" height="91px" viewBox="0 0 90 91" version="1.1" xmlns="http://www.w3.org/2000/svg" xmlns:xlink="http://www.w3.org/1999/xlink">
    <!-- Generator: Sketch 52 (66869) - http://www.bohemiancoding.com/sketch -->
    <title>Scopri</title>
    <desc>Created with Sketch.</desc>
    <defs>
        <polygon id="path-1" points="0 0.015 89.9835 0.015 89.9835 89.99985 0 89.99985"></polygon>
    </defs>
    <g id="Page-1" stroke="none" stroke-width="1" fill="none" fill-rule="evenodd">
        <g id="Desktop-HD" transform="translate(-111.000000, -511.000000)">
            <g id="Scopri" transform="translate(111.000000, 510.000000)">
                <path d="M55.44435,36.04095 L48.20535,49.71345 L34.52985,56.95395 L41.75685,43.28595 L55.44435,36.04095 Z M58.68285,26.24895 L36.47085,38.00145 L24.73785,60.19245 C23.47935,62.57145 23.60685,64.95495 25.06785,66.41595 C25.86135,67.20795 26.92485,67.60845 28.11135,67.60845 C29.11485,67.60845 30.20835,67.32195 31.29735,66.74595 L53.48985,54.99945 L65.23935,32.80395 C66.49935,30.42495 66.37485,28.03845 64.91235,26.57745 C63.45135,25.11345 61.06335,24.98745 58.68285,26.24895 Z" id="Fill-1" fill="#2D2D41"></path>
                <g id="Group-5" transform="translate(0.000000, 1.485300)">
                    <mask id="mask-2" fill="white">
                        <use xlink:href="#path-1"></use>
                    </mask>
                    <g id="Clip-4"></g>
                    <path d="M82.84275,45.00735 C82.84275,65.87835 65.86425,82.85685 44.99325,82.85685 C24.12225,82.85685 7.14225,65.87835 7.14225,45.00735 C7.14225,24.13635 24.12225,7.15785 44.99325,7.15785 C65.86425,7.15785 82.84275,24.13635 82.84275,45.00735 M44.99325,0.01485 C20.18475,0.01485 -0.00075,20.19885 -0.00075,45.00735 C-0.00075,69.81585 20.18475,89.99985 44.99325,89.99985 C69.80175,89.99985 89.98425,69.81585 89.98425,45.00735 C89.98425,20.19885 69.80175,0.01485 44.99325,0.01485" id="Fill-3" fill="#2D2D41" mask="url(#mask-2)"></path>
                </g>
            </g>
        </g>
    </g>
</svg>