<?xml version="1.0" encoding="UTF-8"?>
<svg width="74px" height="83px" viewBox="0 0 74 83" version="1.1" xmlns="http://www.w3.org/2000/svg" xmlns:xlink="http://www.w3.org/1999/xlink">
    <!-- Generator: Sketch 52 (66869) - http://www.bohemiancoding.com/sketch -->
    <title>Sviluppa</title>
    <desc>Created with Sketch.</desc>
    <defs>
        <polygon id="path-1" points="0 0 74 0 74 83 0 83"></polygon>
    </defs>
    <g id="Page-1" stroke="none" stroke-width="1" fill="none" fill-rule="evenodd">
        <g id="Desktop-HD" transform="translate(-127.000000, -1157.000000)">
            <g id="Sviluppa" transform="translate(127.000000, 1157.000000)">
                <mask id="mask-2" fill="white">
                    <use xlink:href="#path-1"></use>
                </mask>
                <g id="Clip-2"></g>
                <path d="M67.7460773,72.0015324 L63.0088126,76.7923603 L62.8922474,76.6757693 L30.4320964,43.8381949 L30.5473519,43.7202791 L35.2846165,38.9307761 L35.4011818,39.0473671 L67.8613328,71.8836165 L67.7460773,72.0015324 Z M12.1811197,53.4225005 L12.0645545,53.3059095 L6.36071501,47.5227337 C6.34499834,47.493586 6.32273307,47.4405901 6.29915807,47.3571216 C6.28082196,47.2961763 6.26248585,47.2060833 6.24414975,47.0894924 C6.16032754,46.5237613 6.22450392,45.7632704 6.42096222,45.0027795 C7.41111208,41.1844261 7.4124218,37.1474646 6.42227194,33.3291112 C6.22450392,32.5672954 6.16032754,31.8068045 6.24284002,31.2410734 C6.2768928,31.0078915 6.32535251,30.8767267 6.35940529,30.8091569 L6.38821917,30.7654353 L30.6639172,6.21111756 L30.7791727,6.3277085 L44.7565263,20.4683352 L44.6412708,20.5849261 L12.1811197,53.4225005 Z M72.1349558,67.3286203 L39.6734951,34.491046 L39.7887506,34.3731301 L49.0301493,25.0246562 C51.5133823,22.5126514 51.5133823,18.4240189 49.0301493,15.9093643 L35.1680513,1.88930325 C33.9657264,0.670397928 32.3652461,0 30.6652269,0 C28.9625882,0 27.3621079,0.670397928 26.1597831,1.88797835 L26.1597831,1.88930325 L1.98100451,26.3469035 C-0.724881225,29.082816 -0.0137021576,33.2535921 0.418506115,34.9203126 C1.13623379,37.6986218 1.13623379,40.6359187 0.418506115,43.4102532 C-0.0123924356,45.0769737 -0.724881225,49.2451 1.98100451,51.9823373 L7.67698566,57.7429899 C8.87931049,58.9618952 10.4784811,59.6322931 12.17981,59.6322931 C13.8824487,59.6309682 15.482929,58.9605703 16.6852538,57.7429899 L26.0432178,48.27925 L26.1597831,48.3958409 L58.5033688,81.1154995 C60.990531,83.6288292 65.0349526,83.6275044 67.5129467,81.1154995 L72.1336461,76.4412625 C73.3372806,75.225007 74,73.6059828 74,71.8836165 C74,70.1625752 73.3385904,68.5448759 72.1349558,67.3286203 Z" id="Fill-1" fill="#2D2D41" mask="url(#mask-2)"></path>
            </g>
        </g>
    </g>
</svg>