<?xml version="1.0" encoding="UTF-8"?>
<svg width="290px" height="294px" viewBox="0 0 290 294" version="1.1" xmlns="http://www.w3.org/2000/svg" xmlns:xlink="http://www.w3.org/1999/xlink">
    <!-- Generator: Sketch 52 (66869) - http://www.bohemiancoding.com/sketch -->
    <title>Layouter@1x</title>
    <desc>Created with Sketch.</desc>
    <defs>
        <filter x="-62.2%" y="-60.4%" width="224.5%" height="220.9%" filterUnits="objectBoundingBox" id="filter-1">
            <feOffset dx="0" dy="20" in="SourceAlpha" result="shadowOffsetOuter1"></feOffset>
            <feGaussianBlur stdDeviation="22.5" in="shadowOffsetOuter1" result="shadowBlurOuter1"></feGaussianBlur>
            <feColorMatrix values="0 0 0 0 0.595722854   0 0 0 0 0.595722854   0 0 0 0 1  0 0 0 0.381765172 0" type="matrix" in="shadowBlurOuter1" result="shadowMatrixOuter1"></feColorMatrix>
            <feMerge>
                <feMergeNode in="shadowMatrixOuter1"></feMergeNode>
                <feMergeNode in="SourceGraphic"></feMergeNode>
            </feMerge>
        </filter>
        <polygon id="path-2" points="0 0.4983 199.9997 0.4983 199.9997 205 0 205"></polygon>
        <path d="M42.005,0.534 C18.526,5.75 0.972,26.699 0.972,51.749 C0.972,76.798 18.526,97.747 42.005,102.965 C47.866,104.267 53.435,99.823 53.435,93.818 L53.435,9.68 C53.435,4.387 49.108,0.306 44.067,0.306 C43.39,0.306 42.7,0.379 42.005,0.534" id="path-4"></path>
        <linearGradient x1="-0.000995939996%" y1="49.9998217%" x2="100.002089%" y2="49.9998217%" id="linearGradient-6">
            <stop stop-color="#FF548E" offset="0%"></stop>
            <stop stop-color="#FD2A5B" offset="100%"></stop>
        </linearGradient>
    </defs>
    <g id="Page-1" stroke="none" stroke-width="1" fill="none" fill-rule="evenodd">
        <g id="Splash-Screen-Copy" transform="translate(-354.000000, -1219.000000)">
            <g id="Layouter" filter="url(#filter-1)" transform="translate(399.000000, 1243.000000)">
                <g id="Group-3" transform="translate(0.000000, 0.502000)">
                    <mask id="mask-3" fill="white">
                        <use xlink:href="#path-2"></use>
                    </mask>
                    <g id="Clip-2"></g>
                    <path d="M150.0977,205.0003 L49.9017,205.0003 C22.3417,205.0003 -0.0003,182.6583 -0.0003,155.0983 L-0.0003,50.3993 C-0.0003,22.8403 22.3417,0.4983 49.9017,0.4983 L150.0977,0.4983 C177.6587,0.4983 199.9997,22.8403 199.9997,50.3993 L199.9997,155.0983 C199.9997,182.6583 177.6587,205.0003 150.0977,205.0003" id="Fill-1" fill="#FFFFFF" mask="url(#mask-3)"></path>
                </g>
                <g id="Group-6" transform="translate(48.000000, 51.502000)">
                    <mask id="mask-5" fill="white">
                        <use xlink:href="#path-4"></use>
                    </mask>
                    <g id="Clip-5"></g>
                    <path d="M42.005,0.534 C18.526,5.75 0.972,26.699 0.972,51.749 C0.972,76.798 18.526,97.747 42.005,102.965 C47.866,104.267 53.435,99.823 53.435,93.818 L53.435,9.68 C53.435,4.387 49.108,0.306 44.067,0.306 C43.39,0.306 42.7,0.379 42.005,0.534" id="Fill-4" fill="url(#linearGradient-6)" mask="url(#mask-5)"></path>
                </g>
                <g id="Group-11" transform="translate(112.000000, 50.502000)" fill="#2877F9">
                    <path d="M19.8692,38.6029 C9.2882,38.6029 0.7102,30.0249 0.7102,19.4439 C0.7102,8.8629 9.2882,0.2849 19.8692,0.2849 C30.4502,0.2849 39.0282,8.8629 39.0282,19.4439 C39.0282,30.0249 30.4502,38.6029 19.8692,38.6029" id="Fill-7"></path>
                    <path d="M19.8692,105.2142 C9.2882,105.2142 0.7102,96.6362 0.7102,86.0552 C0.7102,75.4732 9.2882,66.8952 19.8692,66.8952 C30.4502,66.8952 39.0282,75.4732 39.0282,86.0552 C39.0282,96.6362 30.4502,105.2142 19.8692,105.2142" id="Fill-9"></path>
                </g>
            </g>
        </g>
    </g>
</svg>