<?xml version="1.0" encoding="UTF-8"?>
<svg width="200px" height="205px" viewBox="0 0 200 205" version="1.1" xmlns="http://www.w3.org/2000/svg" xmlns:xlink="http://www.w3.org/1999/xlink">
    <!-- Generator: Sketch 52 (66869) - http://www.bohemiancoding.com/sketch -->
    <title>Tripadvisor@1x</title>
    <desc>Created with Sketch.</desc>
    <defs>
        <polygon id="path-1" points="0 0.4982 199.9994 0.4982 199.9994 205 0 205"></polygon>
    </defs>
    <g id="Page-1" stroke="none" stroke-width="1" fill="none" fill-rule="evenodd">
        <g id="Splash-Screen-Copy" transform="translate(-660.000000, -1511.000000)">
            <g id="Tripadvisor" transform="translate(660.000000, 1510.000000)">
                <g id="Group-3" transform="translate(0.000000, 0.502000)">
                    <mask id="mask-2" fill="white">
                        <use xlink:href="#path-1"></use>
                    </mask>
                    <g id="Clip-2"></g>
                    <path d="M150.0984,205.0002 L49.9024,205.0002 C22.3414,205.0002 -0.0006,182.6582 -0.0006,155.0982 L-0.0006,50.4002 C-0.0006,22.8402 22.3414,0.4982 49.9024,0.4982 L150.0984,0.4982 C177.6584,0.4982 199.9994,22.8402 199.9994,50.4002 L199.9994,155.0982 C199.9994,182.6582 177.6584,205.0002 150.0984,205.0002" id="Fill-1" fill="#FFFFFF" mask="url(#mask-2)"></path>
                </g>
                <path d="M61.4763,72.5374 C72.1853,67.8744 85.4823,65.3584 98.8563,65.3584 C112.2473,65.3584 124.3833,67.8824 135.1053,72.5644 C114.9783,73.1814 98.8513,89.6774 98.8473,109.9504 C98.8433,89.3074 82.1183,72.5664 61.4763,72.5374" id="Fill-4" fill="#FFDE9D"></path>
                <path d="M61.4763,72.5374 C72.1853,67.8744 85.4823,65.3584 98.8563,65.3584 C112.2473,65.3584 124.3833,67.8824 135.1053,72.5644 C114.9783,73.1814 98.8513,89.6774 98.8473,109.9504 C98.8433,89.3074 82.1183,72.5664 61.4763,72.5374 Z" id="Stroke-6" stroke="#FFDE9D"></path>
                <path d="M60.3494,103.762 C56.9774,103.762 54.2454,106.495 54.2454,109.867 C54.2454,113.244 56.9774,115.975 60.3494,115.975 C63.7224,115.975 66.4544,113.244 66.4544,109.867 C66.4544,106.495 63.7224,103.762 60.3494,103.762" id="Fill-8" fill="#EC2227"></path>
                <path d="M135.6257,103.677 C132.2537,103.677 129.5187,106.408 129.5187,109.784 C129.5187,113.161 132.2537,115.893 135.6257,115.893 C138.9987,115.893 141.7297,113.161 141.7297,109.784 C141.7297,106.408 138.9987,103.677 135.6257,103.677" id="Fill-10" fill="#01A64F"></path>
                <path d="M136.5574,122.3723 C129.6054,122.3723 123.9694,116.7363 123.9694,109.7843 C123.9694,102.8293 129.6054,97.1933 136.5574,97.1933 C143.5084,97.1933 149.1444,102.8293 149.1444,109.7843 C149.1444,116.7363 143.5084,122.3723 136.5574,122.3723 M136.5574,91.6173 C126.5234,91.6173 118.3924,99.7483 118.3924,109.7843 C118.3924,119.8143 126.5234,127.9503 136.5574,127.9503 C146.5874,127.9503 154.7224,119.8143 154.7224,109.7843 C154.7224,99.7483 146.5874,91.6173 136.5574,91.6173 M136.5704,140.0913 C119.9274,140.0913 106.4374,126.6013 106.4374,109.9583 C106.4374,93.3223 119.9274,79.8303 136.5704,79.8303 C153.2074,79.8303 166.6984,93.3223 166.6984,109.9583 C166.6984,126.6013 153.2074,140.0913 136.5704,140.0913 M61.7734,72.5373 C72.4824,67.8743 85.7794,65.3583 99.1514,65.3583 C112.5444,65.3583 124.6814,67.8823 135.4034,72.5643 C115.2764,73.1813 99.1464,89.6773 99.1424,109.9503 C99.1384,89.3073 82.4124,72.5663 61.7734,72.5373 M61.7154,140.0913 C45.0754,140.0913 31.5854,126.6013 31.5854,109.9583 C31.5854,93.3223 45.0754,79.8303 61.7154,79.8303 C78.3564,79.8303 91.8474,93.3223 91.8474,109.9583 C91.8474,126.6013 78.3564,140.0913 61.7154,140.0913 M174.3204,73.0593 L149.3064,73.0593 C136.5484,64.4753 119.1284,59.1123 99.1514,59.1123 C79.1644,59.1123 60.5484,64.4713 47.7914,73.0593 L23.9634,73.0593 C27.8484,77.6043 30.7244,83.7553 31.4404,87.9803 C26.9494,94.1513 24.2874,101.7433 24.2874,109.9583 C24.2874,130.6323 41.0444,147.3903 61.7154,147.3903 C73.4444,147.3903 83.9094,141.9853 90.7714,133.5443 C93.5714,136.8133 98.2034,143.3933 99.1424,145.3053 C99.1424,145.3053 104.5174,137.2763 107.5374,133.5773 C114.3994,142.0023 124.8554,147.3903 136.5704,147.3903 C157.2384,147.3903 173.9964,130.6323 173.9964,109.9583 C173.9964,101.7473 171.3314,94.1623 166.8424,87.9923 C167.5544,83.7683 170.4304,77.6103 174.3204,73.0593 M61.2814,122.4553 C54.3284,122.4553 48.6934,116.8193 48.6934,109.8673 C48.6934,102.9143 54.3284,97.2783 61.2814,97.2783 C68.2344,97.2783 73.8694,102.9143 73.8694,109.8673 C73.8694,116.8193 68.2344,122.4553 61.2814,122.4553 M61.2814,91.7003 C51.2484,91.7003 43.1164,99.8353 43.1164,109.8673 C43.1164,119.9063 51.2484,128.0323 61.2814,128.0323 C71.3154,128.0323 79.4484,119.9063 79.4484,109.8673 C79.4484,99.8353 71.3154,91.7003 61.2814,91.7003" id="Fill-12" fill="#000000"></path>
                <path d="M182.7361,76.2933 C183.4151,76.2933 183.5181,76.2933 183.6881,76.2393 C184.0681,76.1173 184.0971,75.8463 184.0971,75.5743 C184.0971,75.2303 183.9771,75.0603 183.7421,74.9793 C183.5551,74.9173 183.4061,74.9173 182.7361,74.9173 L182.7361,76.2933 Z M182.7361,79.1193 L181.5521,79.1193 L181.5521,74.1453 L183.3151,74.1453 C184.2011,74.1453 185.3261,74.2533 185.3261,75.5873 C185.3261,76.2183 185.0491,76.7003 184.2841,76.9093 L185.4751,79.1193 L184.1721,79.1193 L183.1371,77.0853 L182.7361,77.0853 L182.7361,79.1193 Z" id="Fill-14" fill="#231F20"></path>
                <path d="M183.5144,80.4759 C181.4864,80.4759 179.8394,78.8309 179.8394,76.8019 C179.8394,74.7719 181.4864,73.1269 183.5144,73.1269 C185.5414,73.1269 187.1884,74.7719 187.1884,76.8019 C187.1884,78.8309 185.5414,80.4759 183.5144,80.4759 M183.5144,72.2799 C181.0144,72.2799 178.9914,74.3049 178.9914,76.8019 C178.9914,79.2989 181.0144,81.3229 183.5144,81.3229 C186.0134,81.3229 188.0364,79.2989 188.0364,76.8019 C188.0364,74.3049 186.0134,72.2799 183.5144,72.2799" id="Fill-16" fill="#231F20"></path>
            </g>
        </g>
    </g>
</svg>