<?xml version="1.0" encoding="UTF-8"?>
<svg width="380px" height="130px" viewBox="0 0 380 130" version="1.1" xmlns="http://www.w3.org/2000/svg" xmlns:xlink="http://www.w3.org/1999/xlink">
    <!-- Generator: Sketch 52 (66869) - http://www.bohemiancoding.com/sketch -->
    <title>Download Large@1x</title>
    <desc>Created with Sketch.</desc>
    <g id="Page-1" stroke="none" stroke-width="1" fill="none" fill-rule="evenodd">
        <g id="Desktop-HD" transform="translate(-1979.000000, -1524.000000)">
            <g id="Card" transform="translate(1133.000000, 752.000000)">
                <g id="Download-Large" transform="translate(846.000000, 772.000000)">
                    <rect id="Rectangle" fill="#73A7F2" x="0" y="0" width="380" height="130" rx="65"></rect>
                    <text id="Download" fill="#FFFFFF" font-family="Helvetica" font-size="46.0269" font-weight="normal">
                        <tspan x="54" y="80">Download</tspan>
                    </text>
                    <g id="Group-5" transform="translate(278.000000, 36.000000)">
                        <path d="M31.3636364,55.8448422 L31.3636364,32.1755343 L28.6363636,32.1755343 L28.6363636,55.8448422 L20.0522727,47.3785387 L18.1295455,49.2763906 L30,61 L41.8704545,49.2763906 L39.9477273,47.3785387 L31.3636364,55.8448422 Z M60,26.9456738 C60,33.635938 54.5052273,39.0596216 47.7272727,39.0596216 L39.8004545,39.0596216 L39.8004545,36.3676332 L47.7272727,36.3676332 C52.9990909,36.3588843 57.2652273,32.1331355 57.2570455,26.9295219 C57.2488636,22.4150574 53.9979545,18.5406131 49.5068182,17.6919637 L48.4090909,17.4833346 L48.4090909,16.3728894 C48.4043182,16.3076087 48.4043182,16.242328 48.4090909,16.1777203 C48.4090909,11.7170955 44.7456818,8.1017551 40.2272727,8.1017551 C39.3395455,8.10444709 38.4579545,8.24779547 37.6159091,8.52507027 L36.6954545,8.82859196 L36.1363636,8.06137527 C31.6179545,2.11409992 23.0706818,0.908762115 17.0454545,5.36938688 C13.6002273,7.91937288 11.5779545,11.9263976 11.5909091,16.1777203 L11.5909091,16.3728894 L11.5909091,17.4833346 L10.4863636,17.6919637 C5.30863636,18.6705015 1.91590909,23.6076082 2.90727273,28.7176752 C3.76772727,33.1540721 7.69704545,36.3629222 12.2727273,36.3676332 L20.1995455,36.3676332 L20.1995455,39.0596216 L12.2727273,39.0596216 C5.50363636,39.0367397 0.0225,33.626516 0,26.9456738 C0.000681818182,21.5516021 3.61431818,16.8076456 8.86363636,15.309554 C9.33477273,6.40109143 17.0338636,-0.443289055 26.0590909,0.0224249366 C30.5652273,0.254608935 34.7740909,2.31398006 37.6909091,5.7126154 C38.5213636,5.51206227 39.3722727,5.4104397 40.2272727,5.40976671 C45.9245455,5.39092279 50.6768182,9.70348819 51.1363636,15.309554 C56.3754545,16.8231245 59.9815909,21.5576591 60,26.9456738 Z" id="Fill-1" fill="#FFFFFF"></path>
                        <path d="M31.3636364,55.8448422 L31.3636364,32.1755343 L28.6363636,32.1755343 L28.6363636,55.8448422 L20.0522727,47.3785387 L18.1295455,49.2763906 L30,61 L41.8704545,49.2763906 L39.9477273,47.3785387 L31.3636364,55.8448422 Z M60,26.9456738 C60,33.635938 54.5052273,39.0596216 47.7272727,39.0596216 L39.8004545,39.0596216 L39.8004545,36.3676332 L47.7272727,36.3676332 C52.9990909,36.3588843 57.2652273,32.1331355 57.2570455,26.9295219 C57.2488636,22.4150574 53.9979545,18.5406131 49.5068182,17.6919637 L48.4090909,17.4833346 L48.4090909,16.3728894 C48.4043182,16.3076087 48.4043182,16.242328 48.4090909,16.1777203 C48.4090909,11.7170955 44.7456818,8.1017551 40.2272727,8.1017551 C39.3395455,8.10444709 38.4579545,8.24779547 37.6159091,8.52507027 L36.6954545,8.82859196 L36.1363636,8.06137527 C31.6179545,2.11409992 23.0706818,0.908762115 17.0454545,5.36938688 C13.6002273,7.91937288 11.5779545,11.9263976 11.5909091,16.1777203 L11.5909091,16.3728894 L11.5909091,17.4833346 L10.4863636,17.6919637 C5.30863636,18.6705015 1.91590909,23.6076082 2.90727273,28.7176752 C3.76772727,33.1540721 7.69704545,36.3629222 12.2727273,36.3676332 L20.1995455,36.3676332 L20.1995455,39.0596216 L12.2727273,39.0596216 C5.50363636,39.0367397 0.0225,33.626516 0,26.9456738 C0.000681818182,21.5516021 3.61431818,16.8076456 8.86363636,15.309554 C9.33477273,6.40109143 17.0338636,-0.443289055 26.0590909,0.0224249366 C30.5652273,0.254608935 34.7740909,2.31398006 37.6909091,5.7126154 C38.5213636,5.51206227 39.3722727,5.4104397 40.2272727,5.40976671 C45.9245455,5.39092279 50.6768182,9.70348819 51.1363636,15.309554 C56.3754545,16.8231245 59.9815909,21.5576591 60,26.9456738 Z" id="Stroke-3" stroke="#FFFFFF" stroke-width="3"></path>
                    </g>
                </g>
            </g>
        </g>
    </g>
</svg>